<?xml version="1.0" encoding="UTF-8" standalone="no"?>
<svg
   xmlns:dc="http://purl.org/dc/elements/1.1/"
   xmlns:cc="http://creativecommons.org/ns#"
   xmlns:rdf="http://www.w3.org/1999/02/22-rdf-syntax-ns#"
   xmlns:svg="http://www.w3.org/2000/svg"
   xmlns="http://www.w3.org/2000/svg"
   xmlns:sodipodi="http://sodipodi.sourceforge.net/DTD/sodipodi-0.dtd"
   xmlns:inkscape="http://www.inkscape.org/namespaces/inkscape"
   inkscape:export-ydpi="576"
   inkscape:export-xdpi="576"
   inkscape:export-filename="D:\Project Real\Februari 1\export\extended line\png\01 - Apple.png"
   width="64pt"
   height="64pt"
   viewBox="0 0 22.577778 22.577778"
   version="1.1"
   id="svg831"
   inkscape:version="1.0 (4035a4fb49, 2020-05-01)"
   sodipodi:docname="01 - Apple.svg">
  <defs
     id="defs825">
    <pattern
       id="EMFhbasepattern"
       patternUnits="userSpaceOnUse"
       width="6"
       height="6"
       x="0"
       y="0" />
    <pattern
       id="EMFhbasepattern-9"
       patternUnits="userSpaceOnUse"
       width="6"
       height="6"
       x="0"
       y="0" />
    <pattern
       id="EMFhbasepattern-0"
       patternUnits="userSpaceOnUse"
       width="6"
       height="6"
       x="0"
       y="0" />
    <pattern
       id="EMFhbasepattern-7"
       patternUnits="userSpaceOnUse"
       width="6"
       height="6"
       x="0"
       y="0" />
    <pattern
       id="EMFhbasepattern-2"
       patternUnits="userSpaceOnUse"
       width="6"
       height="6"
       x="0"
       y="0" />
    <pattern
       id="EMFhbasepattern-98"
       patternUnits="userSpaceOnUse"
       width="6"
       height="6"
       x="0"
       y="0" />
    <pattern
       id="EMFhbasepattern-6"
       patternUnits="userSpaceOnUse"
       width="6"
       height="6"
       x="0"
       y="0" />
    <pattern
       id="EMFhbasepattern-01"
       patternUnits="userSpaceOnUse"
       width="6"
       height="6"
       x="0"
       y="0" />
    <pattern
       id="EMFhbasepattern-07"
       patternUnits="userSpaceOnUse"
       width="6"
       height="6"
       x="0"
       y="0" />
    <pattern
       id="EMFhbasepattern-8"
       patternUnits="userSpaceOnUse"
       width="6"
       height="6"
       x="0"
       y="0" />
    <pattern
       id="EMFhbasepattern-4"
       patternUnits="userSpaceOnUse"
       width="6"
       height="6"
       x="0"
       y="0" />
    <pattern
       id="EMFhbasepattern-40"
       patternUnits="userSpaceOnUse"
       width="6"
       height="6"
       x="0"
       y="0" />
    <pattern
       id="EMFhbasepattern-08"
       patternUnits="userSpaceOnUse"
       width="6"
       height="6"
       x="0"
       y="0" />
    <pattern
       id="EMFhbasepattern-04"
       patternUnits="userSpaceOnUse"
       width="6"
       height="6"
       x="0"
       y="0" />
    <pattern
       id="EMFhbasepattern-014"
       patternUnits="userSpaceOnUse"
       width="6"
       height="6"
       x="0"
       y="0" />
    <pattern
       id="EMFhbasepattern-27"
       patternUnits="userSpaceOnUse"
       width="6"
       height="6"
       x="0"
       y="0" />
    <pattern
       id="EMFhbasepattern-09"
       patternUnits="userSpaceOnUse"
       width="6"
       height="6"
       x="0"
       y="0" />
    <pattern
       id="EMFhbasepattern-5"
       patternUnits="userSpaceOnUse"
       width="6"
       height="6"
       x="0"
       y="0" />
    <pattern
       id="EMFhbasepattern-018"
       patternUnits="userSpaceOnUse"
       width="6"
       height="6"
       x="0"
       y="0" />
  </defs>
  <sodipodi:namedview
     id="base"
     pagecolor="#ffffff"
     bordercolor="#666666"
     borderopacity="1.0"
     inkscape:pageopacity="0.0"
     inkscape:pageshadow="2"
     inkscape:zoom="6.2578125"
     inkscape:cx="33.238452"
     inkscape:cy="42.666667"
     inkscape:document-units="pt"
     inkscape:current-layer="layer1"
     showgrid="false"
     units="pt"
     inkscape:window-width="1366"
     inkscape:window-height="705"
     inkscape:window-x="-8"
     inkscape:window-y="-8"
     inkscape:window-maximized="1"
     inkscape:pagecheckerboard="true"
     inkscape:showpageshadow="false"
     inkscape:object-paths="true"
     inkscape:snap-intersection-paths="true"
     inkscape:snap-smooth-nodes="true"
     inkscape:snap-midpoints="true"
     showguides="true"
     inkscape:snap-bbox="true"
     inkscape:bbox-nodes="true"
     inkscape:snap-nodes="false"
     inkscape:snap-global="true"
     inkscape:document-rotation="0">
    <inkscape:grid
       type="xygrid"
       id="grid1378" />
    <sodipodi:guide
       position="0.97013831,21.607643"
       orientation="78.000048,0"
       id="guide1380"
       inkscape:locked="false" />
    <sodipodi:guide
       position="0.97013831,0.97013129"
       orientation="0,78.000005"
       id="guide1382"
       inkscape:locked="false" />
    <sodipodi:guide
       position="21.607639,0.97013129"
       orientation="-78.000048,0"
       id="guide1384"
       inkscape:locked="false" />
    <sodipodi:guide
       position="21.607639,21.607643"
       orientation="0,-78.000005"
       id="guide1386"
       inkscape:locked="false" />
  </sodipodi:namedview>
  <metadata
     id="metadata828">
    <rdf:RDF>
      <cc:Work
         rdf:about="">
        <dc:format>image/svg+xml</dc:format>
        <dc:type
           rdf:resource="http://purl.org/dc/dcmitype/StillImage" />
        <dc:title></dc:title>
      </cc:Work>
    </rdf:RDF>
  </metadata>
  <g
     inkscape:label="Icon"
     inkscape:groupmode="layer"
     id="layer1"
     transform="translate(0,-274.42223)">
    <path
       sodipodi:nodetypes="csssccccscscccccccscsccccccccccccsccccsccccccccssscssscscsccscccccccccsccccccsccccccsscsscccscccccccccccccccccccccsccccccccccccccccccccc"
       d="m 4.3738429,276.27295 c -0.3349177,0.14313 -0.6206787,0.2983 -0.8297202,0.47848 -0.1045153,0.0901 -0.1964995,0.18371 -0.2525534,0.33371 -0.056057,0.15001 -0.02134,0.3841 0.098036,0.5129 1.131151,1.22033 2.2075411,1.63596 3.1896868,1.65164 0.7912771,0.0127 1.4891344,-0.20464 2.1463679,-0.39278 -0.066904,0.61858 -0.045627,1.24927 0.064275,1.86915 -1.0546737,-0.0394 -2.1079349,-0.1353 -3.1640413,-0.28048 -1.2982191,0.004 -2.2260495,0.47006 -2.862152,1.09331 -0.6346165,0.6218 -0.9870022,1.38443 -1.2121188,1.99965 -0.80904094,1.93615 -0.72170751,4.50361 -0.059082,6.83124 0.6636424,2.33116 1.8992824,4.43474 3.5724145,5.37047 0.4393602,0.22732 0.9463786,0.22916 1.4403236,0.14867 0.4939481,-0.0805 0.9829468,-0.25343 1.3893619,-0.44408 0.165855,-0.078 0.2367742,-0.2761 0.159064,-0.44213 -0.078069,-0.16585 -0.27546,-0.23677 -0.441481,-0.15905 -0.3578837,0.16788 -0.7990123,0.32027 -1.2121188,0.38758 -0.411142,0.067 -0.7840007,0.0416 -1.0205987,-0.0785 -1.407535,-0.78945 -2.6184404,-2.74763 -3.2494171,-4.96405 -0.6317745,-2.21923 -0.6861431,-4.68163 0.039606,-6.41086 0.2106601,-0.57568 0.5315169,-1.24759 1.0601984,-1.76559 0.5282028,-0.51754 1.2551392,-0.90309 2.3739245,-0.90309 0.2475607,0.0341 0.4962882,0.0635 0.7449959,0.0922 l 1.730858,1.33969 c 0.915222,0.49216 1.8818276,0.59727 2.8527349,0.28339 6.64e-4,-8.3e-4 0.0016,-7e-4 0.0026,-0.003 l 1.297821,-0.4324 c 0.173047,-0.0588 0.266046,-0.24598 0.208402,-0.4194 -0.05773,-0.17402 -0.245276,-0.26842 -0.419402,-0.21101 l -1.293276,0.43175 c -0.8095629,0.26171 -1.5468669,0.17962 -2.3015359,-0.22074 l -0.8348903,-0.64728 c 2.0014646,0.15323 4.0393452,0.11382 6.0002252,-0.21425 1.119518,0.004 1.846218,0.38508 2.374899,0.90309 0.528681,0.518 0.849538,1.18991 1.060198,1.76559 0.146123,0.34816 0.255406,0.7249 0.3402,1.11766 l -8.6081988,8.6017 c -0.1319426,0.13067 -0.1331094,0.34266 -0.00266,0.47198 2.9533018,2.9512 7.4569278,2.5644 10.4228068,-0.39928 2.965876,-2.96369 3.350652,-7.4619 0.397331,-10.41306 -0.129394,-0.13018 -0.341257,-0.12901 -0.471993,0.003 l -1.184203,1.18357 c -0.07616,-0.27569 -0.165958,-0.54313 -0.272678,-0.79921 v -0.003 c -0.225069,-0.61567 -0.579188,-1.37954 -1.214718,-2.00224 -0.636102,-0.62325 -1.563933,-1.08992 -2.867018,-1.09201 -0.908891,0.15257 -1.811354,0.23804 -2.720942,0.27592 -0.356525,-1.59588 0.01389,-2.83415 0.823231,-3.95124 0.104842,-0.14471 0.158034,-0.32597 0.142181,-0.49082 -0.01585,-0.16484 -0.08929,-0.30298 -0.176592,-0.41032 -0.174587,-0.21468 -0.405282,-0.33826 -0.6356,-0.39992 -0.133136,-0.0357 -0.266535,-0.0499 -0.394087,-0.041 -0.127548,0.009 -0.2489,0.0413 -0.356427,0.10001 -0.215058,0.11722 -0.3496434,0.29425 -0.4856282,0.49083 -0.1622649,0.23456 -0.3047716,0.48085 -0.4304416,0.73492 -0.5195436,-0.36709 -0.906267,-0.61282 -1.2802891,-0.76479 -0.4491229,-0.18249 -0.8746383,-0.22268 -1.432861,-0.22268 -0.7227611,-0.006 -1.576604,0.21941 -2.2450531,0.5051 z m 5.7911711,4.46803 c -0.2299168,0.004 -0.4597702,0.006 -0.6901355,0.004 -0.3041566,-1.51274 -0.020443,-3.11324 0.8323165,-4.34597 0.117696,-0.17015 0.206492,-0.25794 0.303844,-0.30027 0.229728,-0.13209 0.624033,-0.0305 0.514478,0.42372 -0.379165,0.79373 -1.3057088,2.50396 -0.960503,4.21927 z m -2.7657371,-3.65584 c -0.660222,-0.0768 -1.3186722,-0.0363 -1.9314728,0.3019 -0.1614107,0.0879 -0.2207155,0.28996 -0.1324446,0.45121 0.088876,0.16198 0.2932967,0.22084 0.4544648,0.1305 0.8111916,-0.44776 1.9050862,-0.16319 3.064063,0.12563 -0.7797526,0.24367 -1.5179341,0.50176 -2.2642065,0.48985 -0.7787686,-0.0126 -1.6048222,-0.32994 -2.5891453,-1.34196 0.1188125,-0.098 0.3464157,-0.2333 0.6330012,-0.35579 0.5931121,-0.25349 1.4154594,-0.45988 1.9814636,-0.45381 0.5293862,1.7e-4 0.8329776,0.0301 1.1867993,0.174 0.3152856,0.12811 0.6968666,0.37004 1.2578947,0.79076 -0.5416321,-0.10164 -1.0986813,-0.24692 -1.6604174,-0.31228 z m -4.0051266,6.23525 c -0.172051,0.28861 -0.3082352,0.6407 -0.4025261,1.07708 -0.038918,0.17967 0.075397,0.35681 0.2551497,0.39538 0.1790582,0.0389 0.3559159,-0.0743 0.3953827,-0.2532 0.082078,-0.37988 0.1950635,-0.6622 0.323968,-0.87841 0.094424,-0.15791 0.042624,-0.36248 -0.1155649,-0.45642 -0.046883,-0.028 -0.099952,-0.0441 -0.1684743,-0.0467 -0.1269433,0.004 -0.2301526,0.0651 -0.2879351,0.16231 z m 15.8939027,0.59014 c 2.430148,2.69217 2.085946,6.53202 -0.57587,9.19186 -2.66182,2.65985 -6.506822,3.00621 -9.2009492,0.57782 l 0.5992452,-0.59924 c 2.245163,1.99378 5.502087,1.63334 7.673946,-0.53691 1.125517,-1.12468 1.838512,-2.59028 1.9925,-4.07071 0.143328,-1.378 -0.208809,-2.7789 -1.172516,-3.87982 z m -1.162128,1.16149 c 0.815765,0.94959 1.115109,2.12947 0.989432,3.33771 -0.136653,1.31376 -0.782175,2.64753 -1.800329,3.66493 -1.955455,1.95401 -4.746827,2.27632 -6.731908,0.53431 z m -15.4407376,0.60119 c -0.2155898,1.01245 -0.2042979,2.34072 0.1493209,3.46236 0.055568,0.17498 0.2424783,0.27179 0.4174578,0.2162 0.1747236,-0.0558 0.2711884,-0.24267 0.2155466,-0.41745 -0.3080855,-0.97721 -0.3211459,-2.23729 -0.1324446,-3.12348 0.03717,-0.1796 -0.078176,-0.35539 -0.2986485,-0.39635 -0.191959,0.003 -0.3194839,0.11094 -0.3512322,0.25872 z m 14.0305996,2.5028 v 6.7e-4 c -0.02919,0.001 -0.05799,0.008 -0.0857,0.0168 l -1.207579,0.40967 c -0.22261,0.077 -0.29677,0.35466 -0.14218,0.53238 l 0.839459,0.95956 c 0.04362,0.049 0.100772,0.084 0.164256,0.10063 0.550671,0.14746 1.125583,-0.18546 1.27315,-0.73623 0.147571,-0.55072 -0.184849,-1.123 -0.735583,-1.27056 -0.03435,-0.0101 -0.07008,-0.0143 -0.105822,-0.0129 z m -0.03701,0.70442 c 0.162474,0.0759 0.284133,0.22686 0.235674,0.40771 -0.04868,0.18171 -0.230017,0.25173 -0.409669,0.23503 l -0.397331,-0.45122 z m -2.384638,0.95242 -0.410313,1.20692 c -0.02028,0.0621 -0.02187,0.12863 -0.0045,0.19153 0.147569,0.55074 0.722412,0.88382 1.273145,0.73624 0.55081,-0.14751 0.881854,-0.72308 0.734285,-1.2738 -0.01658,-0.0634 -0.05161,-0.12061 -0.100633,-0.16425 l -0.95959,-0.84142 c -0.06387,-0.0562 -0.146817,-0.0857 -0.241192,-0.0818 -0.139625,0.0139 -0.249924,0.10239 -0.291183,0.22658 z m 0.468749,0.6843 0.451217,0.39733 c 0.01668,0.17957 -0.05405,0.36168 -0.235671,0.41031 -0.180862,0.0485 -0.331148,-0.0733 -0.40707,-0.23567 z"
       style="color:#000000;font-style:normal;font-variant:normal;font-weight:normal;font-stretch:normal;font-size:medium;line-height:normal;font-family:sans-serif;font-variant-ligatures:normal;font-variant-position:normal;font-variant-caps:normal;font-variant-numeric:normal;font-variant-alternates:normal;font-variant-east-asian:normal;font-feature-settings:normal;font-variation-settings:normal;text-indent:0;text-align:start;text-decoration:none;text-decoration-line:none;text-decoration-style:solid;text-decoration-color:#000000;letter-spacing:normal;word-spacing:normal;text-transform:none;writing-mode:lr-tb;direction:ltr;text-orientation:mixed;dominant-baseline:auto;baseline-shift:baseline;text-anchor:start;white-space:normal;shape-padding:0;shape-margin:0;inline-size:0;clip-rule:nonzero;display:inline;overflow:visible;visibility:visible;isolation:auto;mix-blend-mode:normal;color-interpolation:sRGB;color-interpolation-filters:linearRGB;solid-color:#000000;solid-opacity:1;vector-effect:none;fill:#000000;fill-opacity:1;fill-rule:nonzero;stroke:none;stroke-width:0.529167;stroke-linecap:round;stroke-linejoin:round;stroke-miterlimit:4;stroke-dasharray:none;stroke-dashoffset:0;stroke-opacity:1;color-rendering:auto;image-rendering:auto;shape-rendering:auto;text-rendering:auto;enable-background:accumulate;stop-color:#000000"
       id="path1210" />
  </g>
</svg>
